<?xml version="1.0" encoding="utf-8"?>
<!-- Svg Vector Icons : http://www.onlinewebfonts.com/icon -->
<!DOCTYPE svg PUBLIC "-//W3C//DTD SVG 1.1//EN" "http://www.w3.org/Graphics/SVG/1.1/DTD/svg11.dtd">
<svg version="1.1" xmlns="http://www.w3.org/2000/svg" xmlns:xlink="http://www.w3.org/1999/xlink" x="16px" y="16px" viewBox="0 0 1000 1000" enable-background="new 0 0 1000 1000" xml:space="preserve">
<metadata> Svg Vector Icons : http://www.onlinewebfonts.com/icon </metadata>
<g><g transform="translate(0.000000,223.000000) scale(0.100000,-0.100000)"><path d="M100-2770v-4268.4l2652.9,3.8l2649.1,3.9l-708.2,126.3c-390.5,68.9-1351.3,233.5-2132.3,367.5l-1427.9,237.4v2943.8c0,2071,11.5,2940,42.1,2940c23,0,1003,164.6,2182,363.7C4536.8,147,5524.5,311.6,5555.1,311.6c49.8,0,57.4-467,57.4-3675v-3675h2143.7H9900V-2770v4268.4H5000H100V-2770z M8820.5-576.5c65.1-65.1,65.1-3824.3,0-3889.4c-30.6-30.6-172.3-45.9-382.8-45.9h-336.9v1477.6c0,945.6-15.3,1500.6-38.3,1550.4c-22.9,38.3-306.3,229.7-631.6,421.1c-325.4,191.4-593.4,363.7-593.4,379c0,149.3,11.5,153.1,991.5,153.1C8514.2-530.5,8786-542,8820.5-576.5z M7901.7-3868.7l-11.5-2270.1l-1060.4-11.5l-1064.2-7.7v229.7v229.7h823h823v191.4v191.4h-823h-823v210.5v210.5h823h823v191.4v191.4h-823h-823v210.5v210.5h823h823v172.3v172.3h-823h-823v229.7v229.7h823h823v593.4v593.4h-823h-823v248.8v248.8h1071.9h1071.9L7901.7-3868.7z"/><path d="M3040-2126.9l-298.6-15.3v-1240.3v-1244.1h149.3c84.2,0,176.1-11.5,210.5-22.9c53.6-19.1,61.3,30.6,61.3,421.1v444h191.4c340.7,0,601,156.9,731.2,440.2c107.2,229.7,99.5,677.6-11.5,899.6C3928.1-2157.5,3713.7-2092.4,3040-2126.9z M3564.5-2643.7c126.3-111,160.8-313.9,84.2-497.7c-45.9-111-91.9-149.3-210.5-187.5c-260.3-76.6-275.6-53.6-275.6,386.6v382.8h149.3C3415.2-2559.5,3495.6-2586.3,3564.5-2643.7z"/></g></g>
</svg>